# xmcd
#
# Track frame offsets: 
#        150
#        16968
#        29352
#        41093
#        56971
#        73975
#        88564
#
# Disc length: 1445 seconds
#
# Revision: 0
# Processed by: cddbd v1.5.2PL0 Copyright (c) Steve Scherf et al.
# Submitted via: ExactAudioCopyFreeDBPlugin 1.0
#
DISCID=5f05a307
DTITLE=Miles Calder and The Rumours - The Crossing Over
DYEAR=2013
DGENRE=New Zealand: Country/Blues
TTITLE0=The Avenue
TTITLE1=Eva Marie
TTITLE2=Give Me a Lift
TTITLE3=Waiting for You
TTITLE4=Alextown
TTITLE5=The Crossing Over
TTITLE6=Downstream
EXTD=
EXTT0=
EXTT1=
EXTT2=
EXTT3=
EXTT4=
EXTT5=
EXTT6=
PLAYORDER=
